<?xml version="1.0" encoding="UTF-8"?> <svg xmlns="http://www.w3.org/2000/svg" width="56" height="22" viewBox="0 0 56 22" fill="none"><g clip-path="url(#clip0_14000_19379)"><path d="M30.8295 14.645C31.2988 14.843 31.8121 14.942 32.3695 14.942C32.9195 14.942 33.4291 14.843 33.8985 14.645C34.3678 14.447 34.7748 14.1683 35.1195 13.809C35.4641 13.4497 35.7318 13.0317 35.9225 12.555C36.1131 12.071 36.2085 11.543 36.2085 10.971C36.2085 10.4063 36.1131 9.882 35.9225 9.398C35.7318 8.914 35.4641 8.49233 35.1195 8.133C34.7748 7.77367 34.3678 7.495 33.8985 7.297C33.4291 7.099 32.9195 7 32.3695 7C31.8121 7 31.2988 7.099 30.8295 7.297C30.3675 7.495 29.9605 7.77367 29.6085 8.133C29.2638 8.485 28.9961 8.903 28.8055 9.387C28.6148 9.871 28.5195 10.399 28.5195 10.971C28.5195 11.543 28.6148 12.071 28.8055 12.555C28.9961 13.039 29.2638 13.4607 29.6085 13.82C29.9605 14.172 30.3675 14.447 30.8295 14.645ZM33.3265 13.391C33.0405 13.5157 32.7215 13.578 32.3695 13.578C31.9001 13.578 31.4858 13.468 31.1265 13.248C30.7671 13.0207 30.4848 12.7127 30.2795 12.324C30.0741 11.928 29.9715 11.477 29.9715 10.971C29.9715 10.5897 30.0301 10.2413 30.1475 9.926C30.2648 9.61067 30.4298 9.33567 30.6425 9.101C30.8625 8.86633 31.1155 8.68667 31.4015 8.562C31.6948 8.43 32.0175 8.364 32.3695 8.364C32.7215 8.364 33.0405 8.43 33.3265 8.562C33.6198 8.68667 33.8728 8.86633 34.0855 9.101C34.2981 9.33567 34.4631 9.61433 34.5805 9.937C34.7051 10.2523 34.7675 10.597 34.7675 10.971C34.7675 11.345 34.7051 11.6933 34.5805 12.016C34.4631 12.3313 34.2981 12.6063 34.0855 12.841C33.8728 13.0757 33.6198 13.259 33.3265 13.391Z" fill="white"></path><path d="M18.5 14.832H20.26L17.4895 11.014L20.15 7.132H18.5L16.6965 9.88325L14.815 7.132H13.055L15.762 10.8907L13 14.832H14.65L16.5671 12.0351L18.5 14.832Z" fill="white"></path><path d="M26.0282 7.352C25.6835 7.20533 25.2582 7.132 24.7522 7.132H21.4742V14.832H24.8732C25.2765 14.832 25.6359 14.7843 25.9512 14.689C26.2739 14.5863 26.5489 14.4397 26.7762 14.249C27.0109 14.0583 27.1869 13.82 27.3042 13.534C27.4289 13.248 27.4912 12.918 27.4912 12.544C27.4912 12.192 27.4215 11.8803 27.2822 11.609C27.1429 11.3303 26.9449 11.0993 26.6882 10.916C26.5213 10.792 26.3373 10.6928 26.1363 10.6185C26.3859 10.5028 26.5882 10.3416 26.7432 10.135C26.9705 9.84167 27.0842 9.48233 27.0842 9.057C27.0842 8.64633 26.9962 8.298 26.8202 8.012C26.6442 7.71867 26.3802 7.49867 26.0282 7.352ZM25.7312 13.281C25.5112 13.457 25.1995 13.545 24.7962 13.545H22.8602V11.521H24.7412C25.0125 11.521 25.2472 11.5613 25.4452 11.642C25.6432 11.7153 25.7972 11.8253 25.9072 11.972C26.0172 12.1187 26.0722 12.2947 26.0722 12.5C26.0722 12.8373 25.9585 13.0977 25.7312 13.281ZM25.1812 10.168C25.0199 10.2487 24.8365 10.289 24.6312 10.289H22.8602V8.419H24.5102C24.8915 8.419 25.1812 8.49967 25.3792 8.661C25.5845 8.82233 25.6872 9.05333 25.6872 9.354C25.6872 9.53733 25.6432 9.69867 25.5552 9.838C25.4672 9.97733 25.3425 10.0873 25.1812 10.168Z" fill="white"></path><path d="M42.0039 14.832H43.7639L40.9934 11.014L43.6539 7.132H42.0039L40.2004 9.88325L38.3189 7.132H36.5589L39.2659 10.8907L36.5039 14.832H38.1539L40.071 12.0351L42.0039 14.832Z" fill="white"></path><path d="M11 0C4.92487 0 0 4.92487 0 11C0 17.0751 4.92487 22 11 22H45C51.0751 22 56 17.0751 56 11C56 4.92487 51.0751 0 45 0H11ZM11 2H45C49.9706 2 54 6.02944 54 11C54 15.9706 49.9706 20 45 20H11C6.02944 20 2 15.9706 2 11C2 6.02944 6.02944 2 11 2Z" fill="white"></path></g><defs><clipPath id="clip0_14000_19379"><rect width="56" height="22" rx="11" fill="white"></rect></clipPath></defs></svg> 