<?xml version="1.0" encoding="UTF-8"?> <svg xmlns="http://www.w3.org/2000/svg" width="26" height="26" viewBox="0 0 26 26" fill="none"><g clip-path="url(#clip0_14000_19450)"><path d="M17.7071 9.70711C18.0976 9.31658 18.0976 8.68342 17.7071 8.29289C17.3166 7.90237 16.6834 7.90237 16.2929 8.29289L8.29289 16.2929C7.90237 16.6834 7.90237 17.3166 8.29289 17.7071C8.68342 18.0976 9.31658 18.0976 9.70711 17.7071L17.7071 9.70711Z" fill="#9A74FB"></path><path d="M8 9.7C8 10.6389 8.76112 11.4 9.7 11.4C10.6389 11.4 11.4 10.6389 11.4 9.7C11.4 8.76112 10.6389 8 9.7 8C8.76112 8 8 8.76112 8 9.7Z" fill="#9A74FB"></path><path d="M16.3 14.6C15.3611 14.6 14.6 15.3611 14.6 16.3C14.6 17.2389 15.3611 18 16.3 18C17.2389 18 18 17.2389 18 16.3C18 15.3611 17.2389 14.6 16.3 14.6Z" fill="#9A74FB"></path><path d="M13.0133 0.0150146C12.4949 0.0150146 11.9817 0.117487 11.503 0.31654C11.0248 0.51542 10.5905 0.806792 10.2252 1.17393L10.2242 1.17489L9.29489 2.10425L9.29403 2.1051C8.93217 2.46448 8.44297 2.66633 7.93296 2.66667H6.6C5.55682 2.66667 4.55636 3.08108 3.81872 3.81872C3.08108 4.55636 2.66667 5.55682 2.66667 6.6V7.93277C2.66633 8.44278 2.46448 8.93217 2.1051 9.29403L2.10425 9.29489L1.17489 10.2242L1.17393 10.2252C0.806792 10.5905 0.51542 11.0248 0.31654 11.503C0.117487 11.9817 0.0150146 12.4949 0.0150146 13.0133C0.0150146 13.5317 0.117487 14.045 0.31654 14.5237C0.515406 15.0019 0.806751 15.4361 1.17385 15.8014L1.17489 15.8024L2.10425 16.7318L2.10515 16.7327C2.4645 17.0945 2.66633 17.5837 2.66667 18.0937V19.4267C2.66667 20.4699 3.08108 21.4703 3.81872 22.208C4.55636 22.9456 5.55682 23.36 6.6 23.36H7.93277C8.44289 23.3603 8.93221 23.5622 9.29411 23.9217L9.29489 23.9224L10.2242 24.8518L10.2253 24.8529C10.5906 25.22 11.0248 25.5113 11.503 25.7101C11.9817 25.9092 12.4949 26.0117 13.0133 26.0117C13.5317 26.0117 14.045 25.9092 14.5237 25.7101C15.0017 25.5113 15.4359 25.2201 15.8011 24.8531L15.8024 24.8518L16.7318 23.9224L16.7327 23.9215C17.0946 23.5621 17.5839 23.3603 18.0939 23.36H19.4267C20.4699 23.36 21.4703 22.9456 22.208 22.208C22.9456 21.4703 23.36 20.4699 23.36 19.4267V18.0939C23.3603 17.5839 23.5621 17.0946 23.9215 16.7327L23.9224 16.7318L24.8518 15.8024L24.8531 15.8011C25.2201 15.4359 25.5113 15.0017 25.7101 14.5237C25.9092 14.045 26.0117 13.5317 26.0117 13.0133C26.0117 12.4949 25.9092 11.9817 25.7101 11.503C25.5113 11.0248 25.22 10.5906 24.8529 10.2253L24.8518 10.2242L23.9224 9.29489L23.9217 9.29411C23.5622 8.93221 23.3603 8.44289 23.36 7.93277V6.6C23.36 5.55682 22.9456 4.55636 22.208 3.81872C21.4703 3.08108 20.4699 2.66667 19.4267 2.66667H18.0939C17.5839 2.66633 17.0945 2.4645 16.7327 2.10515L16.7318 2.10425L15.8024 1.17489L15.8014 1.17385C15.4361 0.806751 15.0019 0.515406 14.5237 0.31654C14.045 0.117487 13.5317 0.0150146 13.0133 0.0150146ZM12.271 2.16322C12.5062 2.06538 12.7585 2.01501 13.0133 2.01501C13.2681 2.01501 13.5204 2.06538 13.7557 2.16322C13.991 2.26106 14.2046 2.40444 14.3842 2.58512L14.3862 2.58711L15.3196 3.52045L15.3216 3.52243C16.058 4.25475 17.0542 4.66608 18.0928 4.66667L19.4267 4.66667C19.9394 4.66667 20.4312 4.87036 20.7937 5.23293C21.1563 5.5955 21.36 6.08725 21.36 6.6V7.93334C21.3606 8.97191 21.7719 9.96868 22.5042 10.7051L22.5062 10.7071L23.4396 11.6404L23.4416 11.6424C23.6222 11.8221 23.7656 12.0357 23.8635 12.271C23.9613 12.5062 24.0117 12.7585 24.0117 13.0133C24.0117 13.2681 23.9613 13.5204 23.8635 13.7557C23.7656 13.991 23.6222 14.2046 23.4416 14.3842L23.4396 14.3862L22.5062 15.3196L22.5042 15.3216C21.7719 16.058 21.3606 17.0542 21.36 18.0928V19.4267C21.36 19.9394 21.1563 20.4312 20.7937 20.7937C20.4312 21.1563 19.9394 21.36 19.4267 21.36H18.0933C17.0548 21.3606 16.058 21.7719 15.3216 22.5042L15.3196 22.5062L14.3862 23.4396L14.3842 23.4416C14.2046 23.6222 13.991 23.7656 13.7557 23.8635C13.5204 23.9613 13.2681 24.0117 13.0133 24.0117C12.7585 24.0117 12.5062 23.9613 12.271 23.8635C12.0357 23.7656 11.8221 23.6222 11.6424 23.4416L10.7071 22.5062L10.7051 22.5042C9.96868 21.7719 8.97248 21.3606 7.93391 21.36H6.6C6.08725 21.36 5.5955 21.1563 5.23293 20.7937C4.87036 20.4312 4.66667 19.9394 4.66667 19.4267L4.66667 18.0933C4.66608 17.0548 4.25475 16.058 3.52243 15.3216L2.58711 14.3862L2.58512 14.3842C2.40444 14.2046 2.26106 13.991 2.16322 13.7557C2.06538 13.5204 2.01501 13.2681 2.01501 13.0133C2.01501 12.7585 2.06538 12.5062 2.16322 12.271C2.26106 12.0357 2.40444 11.8221 2.58512 11.6424L2.58711 11.6404L3.52044 10.7071L3.52243 10.7051C4.25475 9.96868 4.66608 8.97249 4.66667 7.93391L4.66667 6.6C4.66667 6.08725 4.87036 5.5955 5.23293 5.23293C5.5955 4.87036 6.08725 4.66667 6.6 4.66667H7.93334C8.97191 4.66608 9.96868 4.25475 10.7051 3.52243L10.7071 3.52044L11.6404 2.58711L11.6424 2.58512C11.8221 2.40444 12.0357 2.26106 12.271 2.16322Z" fill="#9A74FB"></path></g><defs><clipPath id="clip0_14000_19450"><rect width="26" height="26" fill="white"></rect></clipPath></defs></svg> 