<?xml version="1.0" encoding="UTF-8"?> <svg xmlns="http://www.w3.org/2000/svg" width="24" height="24" viewBox="0 0 24 24" fill="none"><path d="M8.00001 4V4.85282C8.00001 5.60249 8.21069 6.33708 8.60802 6.97281L9.70502 8.728C10.1996 9.51929 11.0669 10 12 10C12.9331 10 13.8005 9.51929 14.295 8.728L15.392 6.97281C15.7893 6.33708 16 5.60249 16 4.85281V4C16 2.34315 14.6569 1 13 1H11C9.34316 1 8.00001 2.34315 8.00001 4ZM11 3H13C13.5523 3 14 3.44772 14 4V4.85281C14 5.22765 13.8947 5.59495 13.696 5.91281L12.599 7.668C12.4699 7.87453 12.2436 8 12 8C11.7565 8 11.5301 7.87453 11.401 7.668L10.304 5.91281C10.1054 5.59495 10 5.22765 10 4.85282V4C10 3.44772 10.4477 3 11 3Z" fill="#6D4EEC"></path><path d="M20 8.00003H19.1472C18.3975 8.00003 17.6629 8.21071 17.0272 8.60804L15.272 9.70503C14.4807 10.1996 14 11.0669 14 12C14 12.9332 14.4807 13.8005 15.272 14.295L17.0272 15.392C17.6629 15.7894 18.3975 16 19.1472 16H20C21.6569 16 23 14.6569 23 13V11C23 9.34318 21.6569 8.00003 20 8.00003ZM20 10C20.5523 10 21 10.4477 21 11V13C21 13.5523 20.5523 14 20 14H19.1472C18.7723 14 18.4051 13.8947 18.0872 13.696L16.332 12.599C16.1255 12.47 16 12.2436 16 12C16 11.7565 16.1255 11.5301 16.332 11.401L18.0872 10.304C18.4051 10.1054 18.7723 10 19.1472 10H20Z" fill="#6D4EEC"></path><path d="M11 23H13C14.6569 23 16 21.6569 16 20V19.1472C16 18.3975 15.7893 17.6629 15.392 17.0272L14.295 15.272C13.8004 14.4807 12.9331 14 12 14C11.0669 14 10.1996 14.4807 9.705 15.272L8.60801 17.0272C8.21068 17.6629 8 18.3975 8 19.1472V20C8 21.6569 9.34315 23 11 23ZM11 21C10.4477 21 10 20.5523 10 20V19.1472C10 18.7723 10.1053 18.4051 10.304 18.0872L11.401 16.332C11.5301 16.1255 11.7564 16 12 16C12.2435 16 12.4699 16.1255 12.599 16.332L13.696 18.0872C13.8947 18.4051 14 18.7723 14 19.1472V20C14 20.5523 13.5523 21 13 21H11Z" fill="#6D4EEC"></path><path d="M4.00001 8C2.34316 8 1.00001 9.34314 1.00001 11L1 13C0.999994 14.6568 2.34314 16 4 16H4.85281C5.60249 16 6.33708 15.7893 6.9728 15.392L8.72801 14.295C9.51929 13.8004 10 12.9331 10 12C10 11.0669 9.51931 10.1996 8.72801 9.70499L6.97283 8.60801C6.3371 8.21068 5.60251 8 4.85283 8H4.00001ZM3.00001 11C3.00001 10.4477 3.44772 10 4.00001 10H4.85283C5.22767 10 5.59497 10.1053 5.91283 10.304L7.66801 11.401C7.87454 11.5301 8.00001 11.7564 8 12C8 12.2435 7.87454 12.4699 7.66801 12.599L5.9128 13.696C5.59494 13.8947 5.22765 14 4.85281 14H4C3.44771 14 3 13.5523 3 13L3.00001 11Z" fill="#6D4EEC"></path></svg> 