<?xml version="1.0" encoding="UTF-8"?> <svg xmlns="http://www.w3.org/2000/svg" width="24" height="24" viewBox="0 0 24 24" fill="none"><path d="M8 10C8 9.44772 7.55228 9 7 9C6.44772 9 6 9.44772 6 10V11H5C4.44772 11 4 11.4477 4 12C4 12.5523 4.44772 13 5 13H6V14C6 14.5523 6.44772 15 7 15C7.55228 15 8 14.5523 8 14V13H9C9.55228 13 10 12.5523 10 12C10 11.4477 9.55228 11 9 11H8V10Z" fill="#9A74FB"></path><path d="M13 13.5C13 14.3284 13.6716 15 14.5 15C15.3284 15 16 14.3284 16 13.5C16 12.6716 15.3284 12 14.5 12C13.6716 12 13 12.6716 13 13.5Z" fill="#9A74FB"></path><path d="M17.5 9C16.6716 9 16 9.67157 16 10.5C16 11.3284 16.6716 12 17.5 12C18.3284 12 19 11.3284 19 10.5C19 9.67157 18.3284 9 17.5 9Z" fill="#9A74FB"></path><path d="M0 12C0 15.866 3.13401 19 7 19H17C20.866 19 24 15.866 24 12C24 8.13401 20.866 5 17 5H7C3.13401 5 0 8.13401 0 12ZM7 7H17C19.7614 7 22 9.23858 22 12C22 14.7614 19.7614 17 17 17H7C4.23858 17 2 14.7614 2 12C2 9.23858 4.23858 7 7 7Z" fill="#9A74FB"></path></svg> 