<?xml version="1.0" encoding="UTF-8"?> <svg xmlns="http://www.w3.org/2000/svg" width="42" height="42" viewBox="0 0 42 42" fill="none"><rect width="42" height="42" rx="5" fill="#F7F7F7"></rect><path fill-rule="evenodd" clip-rule="evenodd" d="M0 5C0 2.23858 2.23858 0 5 0H37C39.7614 0 42 2.23858 42 5V37C42 39.7614 39.7614 42 37 42H5C2.23858 42 0 39.7614 0 37V5ZM2 5C2 3.34315 3.34315 2 5 2H37C38.6569 2 40 3.34315 40 5V37C40 38.6569 38.6569 40 37 40H5C3.34315 40 2 38.6569 2 37V5Z" fill="#EAEAEA"></path><path d="M28.9518 11C28.9518 10.4477 28.504 10 27.9518 10C27.3995 10 26.9518 10.4477 26.9518 11V13H24.9518C24.3995 13 23.9518 13.4477 23.9518 14C23.9518 14.5523 24.3995 15 24.9518 15H26.9518V17C26.9518 17.5523 27.3995 18 27.9518 18C28.504 18 28.9518 17.5523 28.9518 17V15H30.9518C31.504 15 31.9518 14.5523 31.9518 14C31.9518 13.4477 31.504 13 30.9518 13H28.9518V11Z" fill="#333333"></path><path fill-rule="evenodd" clip-rule="evenodd" d="M20.1015 16.6383C19.3071 15.4791 17.5964 15.4791 16.802 16.6383L15.1829 19.0008L12.4357 19.8106C11.0878 20.2079 10.5591 21.8349 11.4161 22.9486L13.1626 25.2185L13.0839 28.0816C13.0452 29.4863 14.4292 30.4918 15.7532 30.021L18.4518 29.0613L21.1503 30.021C22.4743 30.4918 23.8583 29.4863 23.8196 28.0816L23.7409 25.2185L25.4874 22.9486C26.3444 21.8349 25.8157 20.2079 24.4679 19.8106L21.7206 19.0008L20.1015 16.6383ZM18.4518 17.7689L20.0709 20.1314C20.3309 20.5109 20.7139 20.7891 21.1551 20.9192L23.9023 21.729L22.1558 23.9989C21.8753 24.3635 21.729 24.8137 21.7417 25.2735L21.8204 28.1366L19.1218 27.1769C18.6884 27.0228 18.2151 27.0228 17.7817 27.1769L15.0831 28.1366L15.1618 25.2735C15.1745 24.8137 15.0282 24.3635 14.7477 23.9989L13.0012 21.729L15.7484 20.9192C16.1896 20.7891 16.5726 20.5109 16.8326 20.1314L18.4518 17.7689Z" fill="#333333"></path></svg> 