<?xml version="1.0" encoding="UTF-8"?> <svg xmlns="http://www.w3.org/2000/svg" width="18" height="18" viewBox="0 0 18 18" fill="none"><g clip-path="url(#clip0_14000_19584)"><path d="M9 0C4.02944 0 0 4.02944 0 9C0 13.9706 4.02944 18 9 18C13.9706 18 18 13.9706 18 9C18 4.02944 13.9706 0 9 0ZM7.55208 15.8501C7.61672 15.5623 7.64935 15.2683 7.64935 14.9733V14.0574C7.64935 13.7648 7.75976 13.4829 7.95854 13.2681L8.29698 12.9023C8.96231 12.1833 9.12806 11.1339 8.71672 10.2448C8.32104 9.38955 7.46455 8.84211 6.52222 8.84211H5.65499C5.54873 8.84211 5.44516 8.80868 5.35894 8.74656C5.19998 8.63204 5.12134 8.43612 5.15699 8.24348L5.19662 8.02932C5.24736 7.75514 5.42931 7.52327 5.68356 7.40879L5.8921 7.31489C6.61347 6.99005 7.19349 6.41594 7.52569 5.69793L7.5734 5.5948C7.90857 4.87038 7.99285 4.05495 7.81296 3.27729L7.55216 2.14991C8.01932 2.05167 8.50362 2 9 2C9.28607 2 9.56813 2.01716 9.84521 2.05051C9.65027 2.38841 9.54545 2.77405 9.54545 3.16992V3.60623C9.54545 4.84601 10.7086 5.75153 11.9048 5.45752L11.9677 5.50282C12.7592 6.07302 13.8344 6.04248 14.5922 5.42827L14.8777 5.19686C15.1302 5.5863 15.3451 6.00242 15.5171 6.44006L15.4129 6.49639C15.1208 6.65421 14.7941 6.73684 14.4621 6.73684H12.5001C11.9688 6.73684 11.4616 6.95854 11.1008 7.34849C10.4785 8.02103 10.4226 9.04115 10.9678 9.77761L11.7215 10.7958C11.8601 10.9829 11.951 11.2009 11.9865 11.431L12.5428 15.0385C11.5036 15.6496 10.2927 16 9 16C8.5036 16 8.01926 15.9483 7.55208 15.8501ZM5.64209 15.1435C3.47168 13.9547 2 11.6492 2 9C2 6.34331 3.47999 4.03229 5.66047 2.84645L5.86441 3.72805C5.94413 4.07265 5.90678 4.43399 5.75826 4.755L5.71055 4.85813C5.58048 5.13927 5.35337 5.36406 5.07092 5.49124L4.86238 5.58514C4.01007 5.96894 3.40011 6.74624 3.23001 7.66537L3.19038 7.87953C3.01394 8.8329 3.40317 9.80251 4.18983 10.3693C4.61652 10.6767 5.12909 10.8421 5.65499 10.8421H6.52222C6.68512 10.8421 6.83318 10.9367 6.90158 11.0846C6.97268 11.2383 6.94403 11.4197 6.82902 11.544L6.49057 11.9097C5.94976 12.4942 5.64935 13.2612 5.64935 14.0574V14.9733C5.64935 15.0302 5.64693 15.087 5.64209 15.1435ZM11.9426 2.64669C12.5309 2.91962 13.0749 3.27187 13.561 3.68969L13.3329 3.87454C13.2763 3.92042 13.196 3.9227 13.1368 3.88011L13.0382 3.80905C12.6057 3.49747 12.0643 3.38228 11.5455 3.48747V3.16992C11.5455 3.10947 11.5683 3.05125 11.6093 3.00688L11.9426 2.64669ZM15.9778 8.43854C15.9925 8.62376 16 8.81101 16 9C16 10.729 15.3731 12.3116 14.3343 13.5329L13.9631 11.1262C13.8782 10.5755 13.6606 10.0537 13.329 9.60585L12.6857 8.73684H14.4621C14.9833 8.73684 15.498 8.63501 15.9778 8.43854Z" fill="#6D4EEC"></path></g><defs><clipPath id="clip0_14000_19584"><rect width="18" height="18" fill="white"></rect></clipPath></defs></svg> 