<?xml version="1.0" encoding="UTF-8"?> <svg xmlns="http://www.w3.org/2000/svg" width="24" height="24" viewBox="0 0 24 24" fill="none"><path d="M14.1961 1.16751L8.34978 5.02759C7.77914 5.40436 7.35433 5.96478 7.14574 6.616L5.2145 12.6453L4.75042 12.3774C3.55468 11.687 2.02571 12.0967 1.33535 13.2924C0.644998 14.4882 1.05469 16.0171 2.25042 16.7075L2.68342 16.9575L1.68348 18.6894C0.855057 20.1243 1.34668 21.9591 2.78156 22.7875C4.21644 23.6159 6.05121 23.1243 6.87964 21.6894L7.87958 19.9575L8.31259 20.2075C9.50833 20.8978 11.0373 20.4882 11.7277 19.2924C12.418 18.0967 12.0083 16.5677 10.8126 15.8774L10.2961 15.5792L14.552 10.892C15.0117 10.3857 15.2846 9.73764 15.3256 9.05506L15.7453 2.06194C15.7947 1.23937 14.8838 0.71347 14.1961 1.16751ZM13.0713 9.54754L8.52375 14.5559L6.98684 13.6686L9.05042 7.22608C9.11995 7.009 9.26155 6.8222 9.45176 6.69661L13.6291 3.93851L13.3292 8.93523C13.3155 9.16276 13.2245 9.37879 13.0713 9.54754ZM4.41547 17.9575L6.14752 18.9575L5.14759 20.6894C4.87144 21.1677 4.25985 21.3316 3.78156 21.0555C3.30327 20.7793 3.13939 20.1677 3.41554 19.6894L4.41547 17.9575ZM3.0674 14.2924C3.20548 14.0533 3.51127 13.9713 3.75042 14.1094L9.81259 17.6094C10.0517 17.7475 10.1337 18.0533 9.99561 18.2924C9.85754 18.5316 9.55174 18.6135 9.31259 18.4754L3.25042 14.9754C3.01127 14.8374 2.92933 14.5316 3.0674 14.2924Z" fill="#6D4EEC"></path><path d="M17.8062 10.3243C17.8062 10.8766 18.2539 11.3243 18.8062 11.3243C19.3585 11.3243 19.8062 10.8766 19.8062 10.3243C19.8062 9.77206 19.3585 9.32434 18.8062 9.32434C18.2539 9.32434 17.8062 9.77206 17.8062 10.3243Z" fill="#6D4EEC"></path><path d="M20.8062 14.8243C20.8062 15.6528 21.4778 16.3243 22.3062 16.3243C23.1347 16.3243 23.8062 15.6528 23.8062 14.8243C23.8062 13.9959 23.1347 13.3243 22.3062 13.3243C21.4778 13.3243 20.8062 13.9959 20.8062 14.8243Z" fill="#6D4EEC"></path><path d="M14.8062 18.3243C14.8062 19.4289 15.7017 20.3243 16.8062 20.3243C17.9108 20.3243 18.8062 19.4289 18.8062 18.3243C18.8062 17.2198 17.9108 16.3243 16.8062 16.3243C15.7017 16.3243 14.8062 17.2198 14.8062 18.3243Z" fill="#6D4EEC"></path></svg> 