<?xml version="1.0" encoding="UTF-8"?> <svg xmlns="http://www.w3.org/2000/svg" width="42" height="42" viewBox="0 0 42 42" fill="none"><rect width="42" height="42" rx="5" fill="#F7F7F7"></rect><path fill-rule="evenodd" clip-rule="evenodd" d="M0 5C0 2.23858 2.23858 0 5 0H37C39.7614 0 42 2.23858 42 5V37C42 39.7614 39.7614 42 37 42H5C2.23858 42 0 39.7614 0 37V5ZM2 5C2 3.34315 3.34315 2 5 2H37C38.6569 2 40 3.34315 40 5V37C40 38.6569 38.6569 40 37 40H5C3.34315 40 2 38.6569 2 37V5Z" fill="#EAEAEA"></path><path fill-rule="evenodd" clip-rule="evenodd" d="M10 21C10 14.9249 14.9249 10 21 10C27.0751 10 32 14.9249 32 21C32 27.0751 27.0751 32 21 32C14.9249 32 10 27.0751 10 21ZM16.8475 28.9869C13.9669 27.4862 12 24.4728 12 21C12 17.5272 13.9669 14.5138 16.8475 13.0131L17.2821 14.7516C17.3841 15.1595 17.3368 15.5903 17.1488 15.9664C16.928 16.4079 16.532 16.7365 16.0574 16.8722L14.8936 17.2047C13.8161 17.5125 13.0009 18.3965 12.7811 19.4953L12.7629 19.5865C12.5361 20.7205 13.0161 21.8792 13.9783 22.5207C14.4471 22.8332 14.9979 23 15.5613 23H17.9678C18.2216 23 18.4537 23.1434 18.5672 23.3705C18.6962 23.6285 18.6456 23.9401 18.4417 24.1441L18.0228 24.563C17.3679 25.2179 17 26.1061 17 27.0322V28.1307C17 28.2942 16.9799 28.4571 16.9403 28.6158L16.8475 28.9869ZM18.7281 29.7108C19.4538 29.8995 20.2152 30 21 30C22.8116 30 24.4981 29.4648 25.9102 28.5438L25.1322 23.8762C25.0825 23.5779 24.9572 23.2973 24.7683 23.0612L23.8231 21.8796C23.1609 21.052 23.227 19.8588 23.9765 19.1093C24.3666 18.7192 24.8957 18.5 25.4474 18.5H28.2918C28.6023 18.5 28.9085 18.4277 29.1862 18.2889L29.5286 18.1177C29.296 17.4292 28.9824 16.7781 28.5991 16.1757L27.9874 16.6345C27.1164 17.2877 25.9282 17.3207 25.0224 16.7168L24.8857 16.6256C24.8396 16.5949 24.7828 16.5851 24.7291 16.5985C23.3428 16.9451 22 15.8966 22 14.4677V14.1109C22 13.4545 22.2608 12.825 22.7249 12.3609L22.8875 12.1983C22.2789 12.0684 21.6474 12 21 12C20.2152 12 19.4538 12.1005 18.7281 12.2892L19.2224 14.2665C19.4402 15.1376 19.3392 16.0578 18.9376 16.8608C18.4661 17.8038 17.6205 18.5056 16.6068 18.7952L15.443 19.1277C15.0856 19.2298 14.8152 19.5231 14.7423 19.8875L14.7241 19.9787C14.6562 20.318 14.7998 20.6647 15.0877 20.8566C15.2279 20.9501 15.3927 21 15.5613 21H17.9678C18.9792 21 19.9037 21.5714 20.3561 22.4761C20.8701 23.5041 20.6686 24.7456 19.8559 25.5583L19.437 25.9772C19.1572 26.257 19 26.6365 19 27.0322V28.1307C19 28.4577 18.9599 28.7835 18.8806 29.1008L18.7281 29.7108ZM24.9858 12.9285L24.1391 13.7751C24.05 13.8642 24 13.985 24 14.1109V14.4677C24 14.5955 24.1201 14.6892 24.244 14.6582C24.8444 14.5081 25.4802 14.6183 25.9951 14.9615L26.1318 15.0527C26.3321 15.1862 26.5948 15.1789 26.7874 15.0345L27.3445 14.6166C26.6581 13.9344 25.8623 13.3621 24.9858 12.9285ZM29.9591 20.136C29.4364 20.3756 28.8678 20.5 28.2918 20.5H25.4474C25.4262 20.5 25.4058 20.5084 25.3907 20.5235C25.3618 20.5524 25.3593 20.5983 25.3848 20.6302L26.3301 21.8118C26.7324 22.3147 26.9992 22.9122 27.105 23.5474L27.6848 27.0262C29.1239 25.4308 30 23.3177 30 21C30 20.7085 29.9861 20.4203 29.9591 20.136Z" fill="#333333"></path></svg> 