<?xml version="1.0" encoding="UTF-8"?> <svg xmlns="http://www.w3.org/2000/svg" width="18" height="18" viewBox="0 0 18 18" fill="none"><g clip-path="url(#clip0_14000_19593)"><path d="M8 13.0303C8 13.5826 8.44771 14.0303 9 14.0303C9.55229 14.0303 10 13.5826 10 13.0303V8.03027C10 7.47799 9.55229 7.03027 9 7.03027C8.44771 7.03027 8 7.47799 8 8.03027V13.0303Z" fill="#9A74FB"></path><path d="M9 6.03027C9.55229 6.03027 10 5.58256 10 5.03027C10 4.47799 9.55229 4.03027 9 4.03027C8.44771 4.03027 8 4.47799 8 5.03027C8 5.58256 8.44771 6.03027 9 6.03027Z" fill="#9A74FB"></path><path d="M9 0.0302734C4.02944 0.0302734 0 4.05971 0 9.03027C0 14.0008 4.02944 18.0303 9 18.0303C13.9706 18.0303 18 14.0008 18 9.03027C18 4.05971 13.9706 0.0302734 9 0.0302734ZM2 9.03027C2 5.16428 5.13401 2.03027 9 2.03027C12.866 2.03027 16 5.16428 16 9.03027C16 12.8963 12.866 16.0303 9 16.0303C5.13401 16.0303 2 12.8963 2 9.03027Z" fill="#9A74FB"></path></g><defs><clipPath id="clip0_14000_19593"><rect width="18" height="18" fill="white"></rect></clipPath></defs></svg> 