<?xml version="1.0" encoding="UTF-8"?> <svg xmlns="http://www.w3.org/2000/svg" width="42" height="42" viewBox="0 0 42 42" fill="none"><rect width="42" height="42" rx="5" fill="#F7F7F7"></rect><path fill-rule="evenodd" clip-rule="evenodd" d="M0 5C0 2.23858 2.23858 0 5 0H37C39.7614 0 42 2.23858 42 5V37C42 39.7614 39.7614 42 37 42H5C2.23858 42 0 39.7614 0 37V5ZM2 5C2 3.34315 3.34315 2 5 2H37C38.6569 2 40 3.34315 40 5V37C40 38.6569 38.6569 40 37 40H5C3.34315 40 2 38.6569 2 37V5Z" fill="#EAEAEA"></path><path d="M23.1961 10.1675L17.3498 14.0276C16.7791 14.4044 16.3543 14.9648 16.1457 15.616L14.2145 21.6453L13.7504 21.3774C12.5547 20.687 11.0257 21.0967 10.3354 22.2924C9.645 23.4882 10.0547 25.0171 11.2504 25.7075L11.6834 25.9575L10.6835 27.6894C9.85506 29.1243 10.3467 30.9591 11.7816 31.7875C13.2164 32.6159 15.0512 32.1243 15.8796 30.6894L16.8796 28.9575L17.3126 29.2075C18.5083 29.8978 20.0373 29.4882 20.7277 28.2924C21.418 27.0967 21.0083 25.5677 19.8126 24.8774L19.2961 24.5792L23.552 19.892C24.0117 19.3857 24.2846 18.7376 24.3256 18.0551L24.7453 11.0619C24.7947 10.2394 23.8838 9.71347 23.1961 10.1675ZM22.0713 18.5475L17.5238 23.5559L15.9868 22.6686L18.0504 16.2261C18.1199 16.009 18.2615 15.8222 18.4518 15.6966L22.6291 12.9385L22.3292 17.9352C22.3155 18.1628 22.2245 18.3788 22.0713 18.5475ZM13.4155 26.9575L15.1475 27.9575L14.1476 29.6894C13.8714 30.1677 13.2599 30.3316 12.7816 30.0555C12.3033 29.7793 12.1394 29.1677 12.4155 28.6894L13.4155 26.9575ZM12.0674 23.2924C12.2055 23.0533 12.5113 22.9713 12.7504 23.1094L18.8126 26.6094C19.0517 26.7475 19.1337 27.0533 18.9956 27.2924C18.8575 27.5316 18.5517 27.6135 18.3126 27.4754L12.2504 23.9754C12.0113 23.8374 11.9293 23.5316 12.0674 23.2924Z" fill="#333333"></path><path d="M26.8062 19.3243C26.8062 19.8766 27.2539 20.3243 27.8062 20.3243C28.3585 20.3243 28.8062 19.8766 28.8062 19.3243C28.8062 18.7721 28.3585 18.3243 27.8062 18.3243C27.2539 18.3243 26.8062 18.7721 26.8062 19.3243Z" fill="#333333"></path><path d="M29.8062 23.8243C29.8062 24.6528 30.4778 25.3243 31.3062 25.3243C32.1347 25.3243 32.8062 24.6528 32.8062 23.8243C32.8062 22.9959 32.1347 22.3243 31.3062 22.3243C30.4778 22.3243 29.8062 22.9959 29.8062 23.8243Z" fill="#333333"></path><path d="M23.8062 27.3243C23.8062 28.4289 24.7017 29.3243 25.8062 29.3243C26.9108 29.3243 27.8062 28.4289 27.8062 27.3243C27.8062 26.2198 26.9108 25.3243 25.8062 25.3243C24.7017 25.3243 23.8062 26.2198 23.8062 27.3243Z" fill="#333333"></path></svg> 