<?xml version="1.0" encoding="UTF-8"?> <svg xmlns="http://www.w3.org/2000/svg" width="35" height="22" viewBox="0 0 35 22" fill="none"><g clip-path="url(#clip0_14000_19366)"><path d="M19.8064 14.623C20.2684 14.8137 20.7744 14.909 21.3244 14.909C21.691 14.909 22.054 14.865 22.4134 14.777C22.7727 14.6817 23.099 14.5533 23.3924 14.392C23.6857 14.2307 23.9204 14.051 24.0964 13.853L23.3924 12.72C23.2384 12.8813 23.0624 13.0243 22.8644 13.149C22.6664 13.2737 22.4537 13.369 22.2264 13.435C21.999 13.4937 21.768 13.523 21.5334 13.523C21.152 13.523 20.8037 13.4643 20.4884 13.347C20.1804 13.2297 19.9127 13.0573 19.6854 12.83C19.4654 12.6027 19.293 12.3313 19.1684 12.016C19.051 11.6933 18.9924 11.3377 18.9924 10.949C18.9924 10.5677 19.0547 10.223 19.1794 9.915C19.304 9.59967 19.4727 9.32833 19.6854 9.101C19.9054 8.87367 20.162 8.69767 20.4554 8.573C20.756 8.44833 21.075 8.386 21.4124 8.386C21.757 8.386 22.0834 8.463 22.3914 8.617C22.7067 8.771 23.0074 8.99467 23.2934 9.288L24.2064 8.309C24.0157 8.045 23.77 7.81767 23.4694 7.627C23.176 7.429 22.8534 7.275 22.5014 7.165C22.1494 7.055 21.7864 7 21.4124 7C20.8697 7 20.3637 7.099 19.8944 7.297C19.425 7.495 19.0144 7.77367 18.6624 8.133C18.3104 8.49233 18.0354 8.91033 17.8374 9.387C17.6394 9.86367 17.5404 10.3807 17.5404 10.938C17.5404 11.5173 17.632 12.0527 17.8154 12.544C18.006 13.028 18.27 13.4497 18.6074 13.809C18.9447 14.161 19.3444 14.4323 19.8064 14.623Z" fill="white"></path><path d="M11 7.099V14.799H12.419V11.972H14.201C14.641 11.972 15.037 11.862 15.389 11.642C15.7483 11.422 16.0307 11.1287 16.236 10.762C16.4487 10.388 16.555 9.97367 16.555 9.519C16.555 9.06433 16.4487 8.65367 16.236 8.287C16.0307 7.92033 15.7483 7.63067 15.389 7.418C15.037 7.20533 14.641 7.099 14.201 7.099H11ZM14.102 10.663H12.419V8.419H14.102C14.2927 8.419 14.4613 8.46667 14.608 8.562C14.762 8.65733 14.883 8.78933 14.971 8.958C15.0663 9.12667 15.114 9.31733 15.114 9.53C15.114 9.73533 15.0663 9.926 14.971 10.102C14.883 10.2707 14.762 10.4063 14.608 10.509C14.4613 10.6117 14.2927 10.663 14.102 10.663Z" fill="white"></path><path d="M11 0C4.92487 0 0 4.92487 0 11C0 17.0751 4.92487 22 11 22H24C30.0751 22 35 17.0751 35 11C35 4.92487 30.0751 0 24 0H11ZM11 2H24C28.9706 2 33 6.02944 33 11C33 15.9706 28.9706 20 24 20H11C6.02944 20 2 15.9706 2 11C2 6.02944 6.02944 2 11 2Z" fill="white"></path></g><defs><clipPath id="clip0_14000_19366"><rect width="35" height="22" fill="white"></rect></clipPath></defs></svg> 