<?xml version="1.0" encoding="UTF-8"?> <svg xmlns="http://www.w3.org/2000/svg" width="45" height="22" viewBox="0 0 45 22" fill="none"><g clip-path="url(#clip0_14000_19390)"><path d="M22.5104 14.942C23.0897 14.942 23.5957 14.8467 24.0284 14.656C24.461 14.458 24.7947 14.1757 25.0294 13.809C25.264 13.4423 25.3814 13.0097 25.3814 12.511C25.3814 12.2177 25.3227 11.9537 25.2054 11.719C25.088 11.477 24.9157 11.2643 24.6884 11.081C24.4684 10.8903 24.197 10.729 23.8744 10.597C23.559 10.465 23.1997 10.355 22.7964 10.267C22.547 10.2157 22.327 10.157 22.1364 10.091C21.9457 10.025 21.788 9.948 21.6634 9.86C21.5387 9.772 21.4434 9.66933 21.3774 9.552C21.3187 9.43467 21.2894 9.30633 21.2894 9.167C21.2894 8.97633 21.3444 8.815 21.4544 8.683C21.5644 8.54367 21.7147 8.43733 21.9054 8.364C22.1034 8.28333 22.3344 8.243 22.5984 8.243C22.9504 8.243 23.2767 8.331 23.5774 8.507C23.878 8.683 24.1384 8.93967 24.3584 9.277L25.3044 8.353C25.0477 7.92033 24.692 7.58667 24.2374 7.352C23.79 7.11733 23.2437 7 22.5984 7C22.0997 7 21.6414 7.09533 21.2234 7.286C20.8127 7.47667 20.4827 7.74067 20.2334 8.078C19.9914 8.408 19.8704 8.78933 19.8704 9.222C19.8704 9.54467 19.918 9.83433 20.0134 10.091C20.116 10.3403 20.2664 10.5677 20.4644 10.773C20.6697 10.971 20.919 11.1397 21.2124 11.279C21.513 11.411 21.8687 11.5173 22.2794 11.598C22.492 11.6347 22.6864 11.6823 22.8624 11.741C23.0457 11.7923 23.2034 11.8547 23.3354 11.928C23.4747 12.0013 23.5884 12.082 23.6764 12.17C23.7717 12.2507 23.8414 12.346 23.8854 12.456C23.9367 12.5587 23.9624 12.6723 23.9624 12.797C23.9624 12.9803 23.9037 13.1417 23.7864 13.281C23.669 13.413 23.5077 13.5157 23.3024 13.589C23.097 13.6623 22.8697 13.699 22.6204 13.699C22.1877 13.699 21.799 13.6073 21.4544 13.424C21.117 13.2333 20.7687 12.885 20.4094 12.379L19.4854 13.435C19.8374 13.9263 20.259 14.3003 20.7504 14.557C21.249 14.8137 21.8357 14.942 22.5104 14.942Z" fill="white"></path><path d="M17.389 11.675C17.7483 11.455 18.0307 11.1617 18.236 10.795C18.4487 10.421 18.555 10.0067 18.555 9.552C18.555 9.09733 18.4487 8.68667 18.236 8.32C18.0307 7.95333 17.7483 7.66367 17.389 7.451C17.037 7.23833 16.641 7.132 16.201 7.132H13V14.832H14.419V12.005H16.201C16.641 12.005 17.037 11.895 17.389 11.675ZM16.608 8.595C16.762 8.69033 16.883 8.82233 16.971 8.991C17.0663 9.15967 17.114 9.35033 17.114 9.563C17.114 9.76833 17.0663 9.959 16.971 10.135C16.883 10.3037 16.762 10.4393 16.608 10.542C16.4613 10.6447 16.2927 10.696 16.102 10.696H14.419V8.452H16.102C16.2927 8.452 16.4613 8.49967 16.608 8.595Z" fill="white"></path><path d="M28.8566 14.909C29.3846 14.909 29.8613 14.7917 30.2866 14.557C30.7119 14.315 31.0456 13.9923 31.2876 13.589C31.5369 13.1783 31.6616 12.72 31.6616 12.214C31.6616 11.7153 31.5516 11.2753 31.3316 10.894C31.1116 10.5053 30.8146 10.201 30.4406 9.981C30.0666 9.761 29.6413 9.651 29.1646 9.651C28.9593 9.651 28.7429 9.67667 28.5156 9.728C28.3238 9.77275 28.1459 9.82865 27.982 9.89569L28.2022 8.375H31.3866V7.11H27.1406L26.6896 10.421L27.3716 11.345C27.6429 11.2057 27.8629 11.103 28.0316 11.037C28.2003 10.971 28.3506 10.927 28.4826 10.905C28.6146 10.883 28.7539 10.872 28.9006 10.872C29.1646 10.872 29.4029 10.9343 29.6156 11.059C29.8283 11.1837 29.9969 11.3523 30.1216 11.565C30.2463 11.7703 30.3086 12.0087 30.3086 12.28C30.3086 12.5367 30.2426 12.7677 30.1106 12.973C29.9859 13.1783 29.8099 13.3433 29.5826 13.468C29.3626 13.5853 29.1133 13.644 28.8346 13.644C28.5339 13.644 28.2553 13.578 27.9986 13.446C27.7419 13.314 27.4486 13.0647 27.1186 12.698L26.3486 13.567C26.6273 13.9997 26.9829 14.3333 27.4156 14.568C27.8483 14.7953 28.3286 14.909 28.8566 14.909Z" fill="white"></path><path d="M11 0C4.92487 0 0 4.92487 0 11C0 17.0751 4.92487 22 11 22H34C40.0751 22 45 17.0751 45 11C45 4.92487 40.0751 0 34 0H11ZM11 2H34C38.9706 2 43 6.02944 43 11C43 15.9706 38.9706 20 34 20H11C6.02944 20 2 15.9706 2 11C2 6.02944 6.02944 2 11 2Z" fill="white"></path></g><rect x="1" y="1" width="43" height="20" rx="10" stroke="white" stroke-width="2"></rect><defs><clipPath id="clip0_14000_19390"><rect width="45" height="22" rx="11" fill="white"></rect></clipPath></defs></svg> 